<svg xmlns="http://www.w3.org/2000/svg" viewBox="0 0 128 128">
  <defs>
    <linearGradient id="bg" x1="0" y1="0" x2="1" y2="1">
      <stop offset="0%" stop-color="#6366F1"/>
      <stop offset="100%" stop-color="#22D3EE"/>
    </linearGradient>
    <linearGradient id="spark" x1="0" y1="0" x2="1" y2="1">
      <stop offset="0%" stop-color="#F9FAFB"/>
      <stop offset="100%" stop-color="#E0F2FE"/>
    </linearGradient>
  </defs>
  <rect x="8" y="8" width="112" height="112" rx="24" fill="url(#bg)"/>
  <path d="M64 26c-15.464 0-28 12.536-28 28 0 8.52 3.912 16.168 10.048 21.276L38 102l22.724-12.048C62.832 94.088 70.48 98 79 98c15.464 0 28-12.536 28-28S94.464 42 79 42c-2.76 0-5.428.392-7.94 1.12C68.232 33.472 61.684 26 53 26z" fill="#1E293B" opacity="0.18"/>
  <path d="M60 28c-14.912 0-27 12.088-27 27 0 8.168 3.712 15.504 9.58 20.404L38 100l22.596-11.576C64.496 93.288 71.832 97 80 97c14.912 0 27-12.088 27-27s-12.088-27-27-27c-2.656 0-5.232.368-7.636 1.048C66.148 35.08 59.864 28 51 28z" fill="#0F172A" opacity="0.24"/>
  <path d="M55 30c-13.807 0-25 11.193-25 25 0 7.378 3.298 14.004 8.556 18.476L36 94l20.524-10.556C61.004 88.702 67.63 92 75.008 92 88.815 92 100 80.807 100 67c0-13.808-11.185-25-24.992-25-2.447 0-4.791.344-7.007.988C61.516 36.094 55.636 30 48 30z" fill="#0F172A" opacity="0.32"/>
  <path d="M64 42l-9 20h10l-3 24 19-30h-12l6-14H64z" fill="url(#spark)" stroke="#F8FAFC" stroke-width="3" stroke-linejoin="round"/>
</svg>
